<svg width="92" height="92" viewBox="0 0 92 92" fill="none" xmlns="http://www.w3.org/2000/svg">
<path fill-rule="evenodd" clip-rule="evenodd" d="M13.8 0H78.2C85.8215 0 92 6.17847 92 13.8V78.2C92 85.8215 85.8215 92 78.2 92H13.8C6.17847 92 0 85.8215 0 78.2V13.8C0 6.17847 6.17847 0 13.8 0ZM71.3359 29.4687C73.8922 29.4758 76.3932 28.7255 78.5234 27.3124C76.719 29.7875 74.6055 32.0218 72.2344 33.9609C72.6178 40.6011 71.1509 47.2175 67.997 53.0734C64.8431 58.9294 60.1259 63.7952 54.3706 67.1292C48.6152 70.4632 42.0475 72.1346 35.3986 71.9573C28.7497 71.78 22.2804 69.7609 16.7109 66.1249C23.361 66.1671 29.8923 64.3632 35.5781 60.914C32.886 60.8556 30.2792 59.9586 28.1211 58.3481C25.963 56.7376 24.3612 54.4938 23.5391 51.9296C25.4449 52.302 27.4102 52.2406 29.2891 51.7499C26.4665 51.107 23.9411 49.5361 22.1168 47.2883C20.2926 45.0406 19.2749 42.246 19.2266 39.3515C21.0211 40.207 22.9887 40.6374 24.9766 40.6093C22.3426 38.7836 20.4801 36.0452 19.7497 32.9247C19.0194 29.8042 19.4733 26.5237 21.0234 23.7187C24.1913 27.638 28.148 30.8472 32.6367 33.138C37.1254 35.4287 42.0457 36.7499 47.0781 37.0156C46.5066 34.2755 46.8392 31.424 48.0259 28.889C49.2126 26.3539 51.1894 24.2721 53.6597 22.956C56.13 21.6399 58.9605 21.1604 61.7265 21.5895C64.4924 22.0186 67.0446 23.3331 69 25.3359C71.9658 25.2748 74.8205 24.1963 77.0859 22.2812C76.1152 25.3009 74.0689 27.8587 71.3359 29.4687Z" fill="#1DA1F2"/>
</svg>
