<svg width="92" height="92" viewBox="0 0 92 92" fill="none" xmlns="http://www.w3.org/2000/svg">
<path fill-rule="evenodd" clip-rule="evenodd" d="M13.8 0H78.2C85.8215 0 92 6.17847 92 13.8V78.2C92 85.8215 85.8215 92 78.2 92H53.1875V59.2969H63.8969L65.9453 46H53.1875V37.375C53.1875 33.7453 54.9664 30.1875 60.6805 30.1875H66.4844V18.8672C66.4844 18.8672 61.2195 17.9688 56.1883 17.9688C45.6766 17.9688 38.8125 24.3297 38.8125 35.8656V46H27.1328V59.2969H38.8125V92H13.8C6.17847 92 0 85.8215 0 78.2V13.8C0 6.17847 6.17847 0 13.8 0Z" fill="#1877F2"/>
</svg>
