<svg width="92" height="92" viewBox="0 0 92 92" fill="none" xmlns="http://www.w3.org/2000/svg">
<path d="M91.1053 36.9909H87.4V36.8H46V55.2H71.9969C68.2042 65.9111 58.0129 73.6 46 73.6C30.7579 73.6 18.4 61.2421 18.4 46C18.4 30.7579 30.7579 18.4 46 18.4C53.0357 18.4 59.4366 21.0542 64.3103 25.3897L77.3214 12.3786C69.1058 4.7219 58.1164 0 46 0C20.5965 0 0 20.5965 0 46C0 71.4035 20.5965 92 46 92C71.4035 92 92 71.4035 92 46C92 42.9157 91.6826 39.905 91.1053 36.9909Z" fill="#FFC107"/>
<path d="M5.30469 24.5893L20.418 35.673C24.5074 25.5484 34.4112 18.4 46.0009 18.4C53.0366 18.4 59.4375 21.0542 64.3112 25.3897L77.3223 12.3786C69.1067 4.7219 58.1173 0 46.0009 0C28.3323 0 13.0097 9.9751 5.30469 24.5893Z" fill="#FF3D00"/>
<path d="M46.0003 92C57.8821 92 68.6783 87.4529 76.841 80.0584L62.604 68.011C57.9856 71.5093 52.2448 73.6 46.0003 73.6C34.0357 73.6 23.8766 65.9709 20.0494 55.3242L5.04883 66.8817C12.6618 81.7788 28.1224 92 46.0003 92Z" fill="#4CAF50"/>
<path d="M91.1053 36.9907H87.4V36.7998H46V55.1998H71.9969C70.1753 60.3449 66.8656 64.7816 62.5968 68.0131C62.5991 68.0108 62.6014 68.0108 62.6037 68.0085L76.8407 80.0559C75.8333 80.9713 92 68.9998 92 45.9998C92 42.9155 91.6826 39.9048 91.1053 36.9907Z" fill="#1976D2"/>
</svg>
