<svg width="92" height="92" viewBox="0 0 92 92" fill="none" xmlns="http://www.w3.org/2000/svg">
<path fill-rule="evenodd" clip-rule="evenodd" d="M78.2 0H13.8C6.17847 0 0 6.17847 0 13.8V78.2C0 85.8215 6.17847 92 13.8 92H78.2C85.8215 92 92 85.8215 92 78.2V13.8C92 6.17847 85.8215 0 78.2 0ZM76.7265 30.3671C76.0077 27.6718 73.6718 25.5155 70.9765 24.7968C64.8671 23.1796 28.0312 22.9999 21.0233 24.7968C18.328 25.5155 15.9921 27.6718 15.2733 30.3671C13.6562 37.1952 13.4765 54.6249 15.2733 61.6327C15.9921 64.328 18.328 66.4843 21.0233 67.203C27.4921 68.9999 64.328 68.9999 70.9765 67.203C73.6718 66.4843 76.0077 64.328 76.7265 61.6327C78.3437 55.164 78.3437 37.0155 76.7265 30.3671ZM56.2422 46L39.5312 55.5234V36.4766L56.2422 46Z" fill="#ED1D24"/>
</svg>
